<svg  viewBox="0 0 14 19" fill="none" xmlns="http://www.w3.org/2000/svg">
<path d="M7.00002 18.1667C8.65762 18.1667 10.2473 17.5082 11.4194 16.3361C12.5915 15.164 13.25 13.5743 13.25 11.9167C13.25 11.195 13.0584 10.5025 12.8334 9.85833C11.4442 11.2308 10.3892 11.9167 9.66668 11.9167C12.9959 6.08333 11.1667 3.58333 6.16668 0.25C6.58335 4.41667 3.83668 6.31167 2.71835 7.36417C1.80612 8.22223 1.17271 9.33456 0.900253 10.5569C0.627791 11.7793 0.728843 13.0554 1.19031 14.2196C1.65177 15.3839 2.45236 16.3826 3.48827 17.0864C4.52419 17.7902 5.74764 18.1666 7.00002 18.1667ZM7.59168 3.3625C10.2925 5.65417 10.3059 7.435 8.21918 11.0908C7.58502 12.2017 8.38752 13.5833 9.66668 13.5833C10.24 13.5833 10.82 13.4167 11.4325 13.0875C11.251 13.7733 10.9127 14.4076 10.4443 14.9405C9.97594 15.4733 9.39027 15.8902 8.73341 16.1582C8.07655 16.4263 7.36643 16.5381 6.65898 16.4851C5.95153 16.432 5.26605 16.2154 4.65652 15.8524C4.04699 15.4894 3.53006 14.9898 3.14642 14.3931C2.76278 13.7963 2.52291 13.1186 2.4457 12.4134C2.36849 11.7082 2.45604 10.9947 2.70146 10.329C2.94689 9.66339 3.34348 9.06381 3.86002 8.5775C3.96502 8.47917 4.49752 8.00667 4.52085 7.98583C4.87418 7.66917 5.16502 7.38833 5.45252 7.08083C6.47752 5.9825 7.21418 4.76417 7.59085 3.3625H7.59168Z" fill="white" fill-opacity="0.64"/>
</svg>
