<svg  viewBox="0 0 23 22" fill="none" xmlns="http://www.w3.org/2000/svg">
<path d="M11.5 2.51501L3.015 11L11.5 19.485L19.985 11L11.5 2.51501ZM12.207 0.393006L22.107 10.293C22.2945 10.4805 22.3998 10.7348 22.3998 11C22.3998 11.2652 22.2945 11.5195 22.107 11.707L12.207 21.607C12.0195 21.7945 11.7652 21.8998 11.5 21.8998C11.2348 21.8998 10.9805 21.7945 10.793 21.607L0.893 11.707C0.705529 11.5195 0.600214 11.2652 0.600214 11C0.600214 10.7348 0.705529 10.4805 0.893 10.293L10.793 0.393006C10.9805 0.205535 11.2348 0.10022 11.5 0.10022C11.7652 0.10022 12.0195 0.205535 12.207 0.393006ZM12.5 9V6.50001L16 10L12.5 13.5V11H9.5V14H7.5V10C7.5 9.73479 7.60536 9.48044 7.79289 9.2929C7.98043 9.10536 8.23478 9 8.5 9H12.5Z" fill="color"/>
</svg>
