<svg viewBox="0 0 24 26" fill="none" xmlns="http://www.w3.org/2000/svg">
<path d="M24 24.1667C24 24.5203 23.8595 24.8594 23.6095 25.1095C23.3594 25.3595 23.0203 25.5 22.6667 25.5H1.33333C0.979712 25.5 0.640573 25.3595 0.390525 25.1095C0.140476 24.8594 3.20947e-07 24.5203 3.20947e-07 24.1667V10.1533C-0.000140645 9.95015 0.0461562 9.74962 0.135355 9.56706C0.224553 9.38451 0.354294 9.22475 0.514667 9.1L11.1813 0.803996C11.4154 0.621924 11.7035 0.523071 12 0.523071C12.2965 0.523071 12.5846 0.621924 12.8187 0.803996L23.4853 9.1C23.6457 9.22475 23.7754 9.38451 23.8646 9.56706C23.9538 9.74962 24.0001 9.95015 24 10.1533V24.1667ZM21.3333 22.8333V10.804L12 3.54533L2.66667 10.804V22.8333H21.3333ZM5.33333 17.5H18.6667V20.1667H5.33333V17.5Z" fill="color" />
</svg>
