<svg  viewBox="0 0 26 27" fill="none" xmlns="http://www.w3.org/2000/svg">
<path d="M1.45334 20.1667C0.889699 19.192 0.451558 18.1499 0.149338 17.0653C0.807081 16.7308 1.35946 16.2208 1.74538 15.5919C2.13129 14.9629 2.33569 14.2394 2.33597 13.5015C2.33624 12.7635 2.13238 12.0399 1.74694 11.4107C1.3615 10.7814 0.809497 10.271 0.152005 9.93599C0.754719 7.75664 1.90231 5.7666 3.48667 4.15333C4.10546 4.55562 4.8235 4.77887 5.56131 4.79837C6.29912 4.81786 7.02794 4.63283 7.66711 4.26377C8.30628 3.8947 8.83088 3.35599 9.18284 2.70725C9.5348 2.0585 9.70041 1.32503 9.66134 0.587993C11.8508 0.0221556 14.1483 0.0230734 16.3373 0.59066C16.2986 1.32768 16.4645 2.06105 16.8168 2.7096C17.169 3.35816 17.6938 3.89663 18.3331 4.26541C18.9724 4.63419 19.7013 4.81891 20.439 4.79913C21.1768 4.77935 21.8947 4.55583 22.5133 4.15333C23.2853 4.93999 23.9707 5.83466 24.5467 6.83333C25.124 7.83199 25.556 8.87333 25.8507 9.93466C25.1929 10.2692 24.6405 10.7792 24.2546 11.4081C23.8687 12.0371 23.6643 12.7606 23.664 13.4985C23.6638 14.2364 23.8676 14.9601 24.2531 15.5893C24.6385 16.2186 25.1905 16.729 25.848 17.064C25.2453 19.2433 24.0977 21.2334 22.5133 22.8467C21.8945 22.4444 21.1765 22.2211 20.4387 22.2016C19.7009 22.1821 18.9721 22.3672 18.3329 22.7362C17.6937 23.1053 17.1691 23.644 16.8172 24.2927C16.4652 24.9415 16.2996 25.675 16.3387 26.412C14.1492 26.9778 11.8517 26.9769 9.66267 26.4093C9.7014 25.6723 9.53547 24.9389 9.18323 24.2904C8.831 23.6418 8.30619 23.1034 7.6669 22.7346C7.0276 22.3658 6.29874 22.1811 5.56097 22.2009C4.8232 22.2206 4.10529 22.4442 3.48667 22.8467C2.69866 22.0426 2.01546 21.1421 1.45334 20.1667ZM9 20.428C10.4208 21.2475 11.4891 22.5627 12 24.1213C12.6653 24.184 13.3333 24.1853 13.9987 24.1227C14.5099 22.5638 15.5787 21.2486 17 20.4293C18.4203 19.6076 20.094 19.3393 21.7 19.676C22.0867 19.132 22.42 18.552 22.6973 17.9453C21.6032 16.7232 20.9988 15.1403 21 13.5C21 11.82 21.6267 10.2507 22.6973 9.05466C22.418 8.44819 22.0833 7.86884 21.6973 7.32399C20.0924 7.66041 18.4197 7.39263 17 6.57199C15.5792 5.75249 14.5109 4.4373 14 2.87866C13.3347 2.81599 12.6667 2.81466 12.0013 2.87733C11.4901 4.43619 10.4213 5.75141 9 6.57066C7.57971 7.39241 5.90597 7.66069 4.3 7.32399C3.91409 7.86837 3.58018 8.44781 3.30267 9.05466C4.39677 10.2767 5.00118 11.8597 5 13.5C5 15.18 4.37334 16.7493 3.30267 17.9453C3.58197 18.5518 3.91672 19.1311 4.30267 19.676C5.90763 19.3396 7.58028 19.6074 9 20.428ZM13 17.5C11.9391 17.5 10.9217 17.0786 10.1716 16.3284C9.42143 15.5783 9 14.5609 9 13.5C9 12.4391 9.42143 11.4217 10.1716 10.6716C10.9217 9.92142 11.9391 9.49999 13 9.49999C14.0609 9.49999 15.0783 9.92142 15.8284 10.6716C16.5786 11.4217 17 12.4391 17 13.5C17 14.5609 16.5786 15.5783 15.8284 16.3284C15.0783 17.0786 14.0609 17.5 13 17.5ZM13 14.8333C13.3536 14.8333 13.6928 14.6929 13.9428 14.4428C14.1929 14.1928 14.3333 13.8536 14.3333 13.5C14.3333 13.1464 14.1929 12.8072 13.9428 12.5572C13.6928 12.3071 13.3536 12.1667 13 12.1667C12.6464 12.1667 12.3072 12.3071 12.0572 12.5572C11.8071 12.8072 11.6667 13.1464 11.6667 13.5C11.6667 13.8536 11.8071 14.1928 12.0572 14.4428C12.3072 14.6929 12.6464 14.8333 13 14.8333Z" fill="color"/>
</svg>
