<svg  viewBox="0 0 20 20" fill="none" xmlns="http://www.w3.org/2000/svg">
<g clip-path="url(#clip0_111_1013)">
<path d="M5.41669 9.58334C4.92423 9.58334 4.43659 9.48635 3.98162 9.29789C3.52665 9.10944 3.11326 8.83321 2.76504 8.48499C2.41682 8.13677 2.14059 7.72338 1.95214 7.26841C1.76368 6.81344 1.66669 6.3258 1.66669 5.83334C1.66669 5.34089 1.76368 4.85325 1.95214 4.39828C2.14059 3.94331 2.41682 3.52991 2.76504 3.18169C3.11326 2.83347 3.52665 2.55725 3.98162 2.3688C4.43659 2.18034 4.92423 2.08334 5.41669 2.08334C6.41125 2.08334 7.36508 2.47843 8.06834 3.18169C8.7716 3.88495 9.16669 4.83878 9.16669 5.83334C9.16669 6.82791 8.7716 7.78173 8.06834 8.48499C7.36508 9.18825 6.41125 9.58334 5.41669 9.58334ZM5.83335 17.9167C4.83879 17.9167 3.88496 17.5216 3.1817 16.8183C2.47844 16.1151 2.08335 15.1612 2.08335 14.1667C2.08335 13.1721 2.47844 12.2183 3.1817 11.515C3.88496 10.8118 4.83879 10.4167 5.83335 10.4167C6.82792 10.4167 7.78174 10.8118 8.485 11.515C9.18826 12.2183 9.58335 13.1721 9.58335 14.1667C9.58335 15.1612 9.18826 16.1151 8.485 16.8183C7.78174 17.5216 6.82792 17.9167 5.83335 17.9167ZM14.1667 9.58334C13.6742 9.58334 13.1866 9.48635 12.7316 9.29789C12.2767 9.10944 11.8633 8.83321 11.515 8.48499C11.1668 8.13677 10.8906 7.72338 10.7021 7.26841C10.5137 6.81344 10.4167 6.3258 10.4167 5.83334C10.4167 5.34089 10.5137 4.85325 10.7021 4.39828C10.8906 3.94331 11.1668 3.52991 11.515 3.18169C11.8633 2.83347 12.2767 2.55725 12.7316 2.3688C13.1866 2.18034 13.6742 2.08334 14.1667 2.08334C15.1612 2.08334 16.1151 2.47843 16.8183 3.18169C17.5216 3.88495 17.9167 4.83878 17.9167 5.83334C17.9167 6.82791 17.5216 7.78173 16.8183 8.48499C16.1151 9.18825 15.1612 9.58334 14.1667 9.58334ZM14.1667 17.9167C13.1721 17.9167 12.2183 17.5216 11.515 16.8183C10.8118 16.1151 10.4167 15.1612 10.4167 14.1667C10.4167 13.1721 10.8118 12.2183 11.515 11.515C12.2183 10.8118 13.1721 10.4167 14.1667 10.4167C15.1612 10.4167 16.1151 10.8118 16.8183 11.515C17.5216 12.2183 17.9167 13.1721 17.9167 14.1667C17.9167 15.1612 17.5216 16.1151 16.8183 16.8183C16.1151 17.5216 15.1612 17.9167 14.1667 17.9167ZM5.41669 7.91668C5.96922 7.91668 6.49913 7.69718 6.88983 7.30648C7.28053 6.91578 7.50002 6.38588 7.50002 5.83334C7.50002 5.28081 7.28053 4.75091 6.88983 4.3602C6.49913 3.9695 5.96922 3.75001 5.41669 3.75001C4.86415 3.75001 4.33425 3.9695 3.94355 4.3602C3.55285 4.75091 3.33335 5.28081 3.33335 5.83334C3.33335 6.38588 3.55285 6.91578 3.94355 7.30648C4.33425 7.69718 4.86415 7.91668 5.41669 7.91668ZM5.83335 16.25C6.38589 16.25 6.91579 16.0305 7.30649 15.6398C7.69719 15.2491 7.91669 14.7192 7.91669 14.1667C7.91669 13.6141 7.69719 13.0842 7.30649 12.6935C6.91579 12.3028 6.38589 12.0833 5.83335 12.0833C5.28082 12.0833 4.75092 12.3028 4.36021 12.6935C3.96951 13.0842 3.75002 13.6141 3.75002 14.1667C3.75002 14.7192 3.96951 15.2491 4.36021 15.6398C4.75092 16.0305 5.28082 16.25 5.83335 16.25ZM14.1667 7.91668C14.7192 7.91668 15.2491 7.69718 15.6398 7.30648C16.0305 6.91578 16.25 6.38588 16.25 5.83334C16.25 5.28081 16.0305 4.75091 15.6398 4.3602C15.2491 3.9695 14.7192 3.75001 14.1667 3.75001C13.6142 3.75001 13.0842 3.9695 12.6935 4.3602C12.3028 4.75091 12.0834 5.28081 12.0834 5.83334C12.0834 6.38588 12.3028 6.91578 12.6935 7.30648C13.0842 7.69718 13.6142 7.91668 14.1667 7.91668ZM14.1667 16.25C14.7192 16.25 15.2491 16.0305 15.6398 15.6398C16.0305 15.2491 16.25 14.7192 16.25 14.1667C16.25 13.6141 16.0305 13.0842 15.6398 12.6935C15.2491 12.3028 14.7192 12.0833 14.1667 12.0833C13.6142 12.0833 13.0842 12.3028 12.6935 12.6935C12.3028 13.0842 12.0834 13.6141 12.0834 14.1667C12.0834 14.7192 12.3028 15.2491 12.6935 15.6398C13.0842 16.0305 13.6142 16.25 14.1667 16.25Z" fill="color"/>
</g>
<defs>
<clipPath id="clip0_111_1013">
<rect width="20" height="20" fill="white"/>
</clipPath>
</defs>
</svg>
